<svg width="204" height="139" viewBox="0 0 204 139" fill="none" xmlns="http://www.w3.org/2000/svg">
<path d="M0 23L105 12L141 62L105 107L0 101V23Z" fill="url(#paint0_linear)"/>
<path d="M28.3633 25.375C31.944 25.375 35.0365 26.2865 37.6406 28.1094C40.2448 29.9323 42.3932 32.276 44.0859 35.1406C45.7786 37.9401 47.0156 41.1302 47.7969 44.7109C48.5781 48.2266 48.9688 51.6771 48.9688 55.0625C48.9688 61.3125 48.0573 67.0742 46.2344 72.3477C44.4115 77.6211 42.0677 82.1784 39.2031 86.0195C36.4036 89.8607 33.3112 92.8555 29.9258 95.0039C26.5404 97.1523 23.2852 98.2266 20.1602 98.2266C18.5977 98.2266 17.1654 97.3477 15.8633 95.5898C14.5612 93.832 13.487 91.8138 12.6406 89.5352C15.1797 89.9258 17.7513 89.7305 20.3555 88.9492C23.0247 88.168 25.5312 86.8008 27.875 84.8477C30.2839 82.8945 32.4323 80.3555 34.3203 77.2305C36.2734 74.1055 37.8034 70.4271 38.9102 66.1953C37.6081 68.2135 35.9154 69.9062 33.832 71.2734C31.8138 72.5755 29.3073 73.2266 26.3125 73.2266C23.2526 73.2266 20.5833 72.4453 18.3047 70.8828C16.0911 69.3203 14.2357 67.3997 12.7383 65.1211C11.306 62.7773 10.2318 60.2708 9.51562 57.6016C8.86458 54.9323 8.53906 52.4583 8.53906 50.1797C8.53906 48.6823 8.66927 47.0221 8.92969 45.1992C9.1901 43.3763 9.61328 41.5534 10.1992 39.7305C10.7852 37.9076 11.5664 36.1497 12.543 34.457C13.5846 32.6992 14.8216 31.1693 16.2539 29.8672C17.7513 28.5 19.4766 27.4258 21.4297 26.6445C23.4479 25.7982 25.7591 25.375 28.3633 25.375ZM29.4375 65.0234C31.1953 64.9583 32.6602 64.2747 33.832 62.9727C35.0039 61.6706 35.9479 60.1081 36.6641 58.2852C37.4453 56.4622 37.9661 54.5417 38.2266 52.5234C38.5521 50.4401 38.6823 48.5846 38.6172 46.957C38.487 44.8086 38.1615 42.8555 37.6406 41.0977C37.1198 39.2747 36.4036 37.7122 35.4922 36.4102C34.6458 35.1081 33.6367 34.1315 32.4648 33.4805C31.293 32.7643 30.0234 32.4388 28.6562 32.5039C27.0938 32.6341 25.6289 33.2201 24.2617 34.2617C22.8945 35.2383 21.7227 36.5404 20.7461 38.168C19.7695 39.7956 19.0208 41.6185 18.5 43.6367C17.9792 45.5898 17.7839 47.5755 17.9141 49.5938C17.9792 51.8073 18.3047 53.8906 18.8906 55.8438C19.4766 57.7318 20.2578 59.3919 21.2344 60.8242C22.2109 62.1914 23.3828 63.2656 24.75 64.0469C26.1172 64.763 27.6797 65.0885 29.4375 65.0234ZM73.8711 25.375C77.4518 25.375 80.5443 26.2865 83.1484 28.1094C85.7526 29.9323 87.901 32.276 89.5938 35.1406C91.2865 37.9401 92.5234 41.1302 93.3047 44.7109C94.0859 48.2266 94.4766 51.6771 94.4766 55.0625C94.4766 61.3125 93.5651 67.0742 91.7422 72.3477C89.9193 77.6211 87.5755 82.1784 84.7109 86.0195C81.9115 89.8607 78.819 92.8555 75.4336 95.0039C72.0482 97.1523 68.793 98.2266 65.668 98.2266C64.1055 98.2266 62.6732 97.3477 61.3711 95.5898C60.069 93.832 58.9948 91.8138 58.1484 89.5352C60.6875 89.9258 63.2591 89.7305 65.8633 88.9492C68.5326 88.168 71.0391 86.8008 73.3828 84.8477C75.7917 82.8945 77.9401 80.3555 79.8281 77.2305C81.7812 74.1055 83.3112 70.4271 84.418 66.1953C83.1159 68.2135 81.4232 69.9062 79.3398 71.2734C77.3216 72.5755 74.8151 73.2266 71.8203 73.2266C68.7604 73.2266 66.0911 72.4453 63.8125 70.8828C61.599 69.3203 59.7435 67.3997 58.2461 65.1211C56.8138 62.7773 55.7396 60.2708 55.0234 57.6016C54.3724 54.9323 54.0469 52.4583 54.0469 50.1797C54.0469 48.6823 54.1771 47.0221 54.4375 45.1992C54.6979 43.3763 55.1211 41.5534 55.707 39.7305C56.293 37.9076 57.0742 36.1497 58.0508 34.457C59.0924 32.6992 60.3294 31.1693 61.7617 29.8672C63.2591 28.5 64.9844 27.4258 66.9375 26.6445C68.9557 25.7982 71.2669 25.375 73.8711 25.375ZM74.9453 65.0234C76.7031 64.9583 78.168 64.2747 79.3398 62.9727C80.5117 61.6706 81.4557 60.1081 82.1719 58.2852C82.9531 56.4622 83.474 54.5417 83.7344 52.5234C84.0599 50.4401 84.1901 48.5846 84.125 46.957C83.9948 44.8086 83.6693 42.8555 83.1484 41.0977C82.6276 39.2747 81.9115 37.7122 81 36.4102C80.1536 35.1081 79.1445 34.1315 77.9727 33.4805C76.8008 32.7643 75.5312 32.4388 74.1641 32.5039C72.6016 32.6341 71.1367 33.2201 69.7695 34.2617C68.4023 35.2383 67.2305 36.5404 66.2539 38.168C65.2773 39.7956 64.5286 41.6185 64.0078 43.6367C63.487 45.5898 63.2917 47.5755 63.4219 49.5938C63.487 51.8073 63.8125 53.8906 64.3984 55.8438C64.9844 57.7318 65.7656 59.3919 66.7422 60.8242C67.7188 62.1914 68.8906 63.2656 70.2578 64.0469C71.625 64.763 73.1875 65.0885 74.9453 65.0234Z" fill="url(#paint1_linear)"/>
<defs>
<linearGradient id="paint0_linear" x1="149" y1="64" x2="-50" y2="68" gradientUnits="userSpaceOnUse">
<stop stop-color="#E98E05"/>
<stop offset="1" stop-color="#E7D00A" stop-opacity="0.87"/>
</linearGradient>
<linearGradient id="paint1_linear" x1="162" y1="62" x2="-47" y2="64" gradientUnits="userSpaceOnUse">
<stop stop-color="#1F1616" stop-opacity="0.88"/>
<stop offset="1" stop-color="#5C5252" stop-opacity="0.87"/>
</linearGradient>
</defs>
</svg>
