<svg width="119" height="87" viewBox="0 0 119 87" fill="none" xmlns="http://www.w3.org/2000/svg">
<path d="M2.3 30.1C2.96667 30.1 3.3 30.4333 3.3 31.1C3.3 31.7667 2.96667 32.1 2.3 32.1C1.63333 32.1 1.3 31.7667 1.3 31.1C1.3 30.4333 1.63333 30.1 2.3 30.1ZM3.5 26.3C4.16667 26.3 4.5 26.6333 4.5 27.3C4.5 27.9667 4.16667 28.3 3.5 28.3C2.83333 28.3 2.5 27.9667 2.5 27.3C2.5 26.6333 2.83333 26.3 3.5 26.3ZM5.3 22.8C5.96667 22.8 6.3 23.1333 6.3 23.8C6.3 24.4667 5.96667 24.8 5.3 24.8C4.63333 24.8 4.3 24.4667 4.3 23.8C4.3 23.1333 4.63333 22.8 5.3 22.8ZM7.4 19.6C8.06667 19.6 8.4 19.9333 8.4 20.6C8.4 21.2667 8.06667 21.6 7.4 21.6C6.73333 21.6 6.4 21.2667 6.4 20.6C6.4 19.9333 6.73333 19.6 7.4 19.6ZM10.3 17.1C10.9667 17.1 11.3 17.4333 11.3 18.1C11.3 18.7667 10.9667 19.1 10.3 19.1C9.63333 19.1 9.3 18.7667 9.3 18.1C9.3 17.4333 9.63333 17.1 10.3 17.1ZM13.6 15C14.2667 15 14.6 15.3333 14.6 16C14.6 16.6667 14.2667 17 13.6 17C12.9333 17 12.6 16.6667 12.6 16C12.6 15.3333 12.9333 15 13.6 15ZM17.1 13.5C17.7667 13.5 18.1 13.8333 18.1 14.5C18.1 15.1667 17.7667 15.5 17.1 15.5C16.4333 15.5 16.1 15.1667 16.1 14.5C16.1 13.8333 16.4333 13.5 17.1 13.5ZM20.7 12.7C21.3667 12.7 21.7 13.0333 21.7 13.7C21.7 14.3667 21.3667 14.7 20.7 14.7C20.0333 14.7 19.7 14.3667 19.7 13.7C19.7 13.0333 20.0333 12.7 20.7 12.7ZM24.3 12.3C24.9667 12.3 25.3 12.6333 25.3 13.3C25.3 13.9667 24.9667 14.3 24.3 14.3C23.6333 14.3 23.3 13.9667 23.3 13.3C23.3 12.6333 23.6333 12.3 24.3 12.3ZM27.9 12.6C28.5667 12.6 28.9 12.9333 28.9 13.6C28.9 14.2667 28.5667 14.6 27.9 14.6C27.2333 14.6 26.9 14.2667 26.9 13.6C26.9 12.9333 27.2333 12.6 27.9 12.6ZM31.5 13.2C32.1667 13.2 32.5 13.5333 32.5 14.2C32.5 14.8667 32.1667 15.2 31.5 15.2C30.8333 15.2 30.5 14.8667 30.5 14.2C30.5 13.5333 30.8333 13.2 31.5 13.2ZM35.1 14.5C35.7667 14.5 36.1 14.8333 36.1 15.5C36.1 16.1667 35.7667 16.5 35.1 16.5C34.4333 16.5 34.1 16.1667 34.1 15.5C34.1 14.8333 34.4333 14.5 35.1 14.5ZM38.4 16.3C39.0667 16.3 39.4 16.6333 39.4 17.3C39.4 17.9667 39.0667 18.3 38.4 18.3C37.7333 18.3 37.4 17.9667 37.4 17.3C37.4 16.6333 37.7333 16.3 38.4 16.3ZM41.2 18.7C41.8667 18.7 42.2 19.0333 42.2 19.7C42.2 20.3667 41.8667 20.7 41.2 20.7C40.5333 20.7 40.2 20.3667 40.2 19.7C40.2 19.0333 40.5333 18.7 41.2 18.7ZM43.7 21.5C44.3667 21.5 44.7 21.8333 44.7 22.5C44.7 23.1667 44.3667 23.5 43.7 23.5C43.0333 23.5 42.7 23.1667 42.7 22.5C42.7 21.8333 43.0333 21.5 43.7 21.5ZM45.6 24.9C46.2667 24.9 46.6 25.2333 46.6 25.9C46.6 26.5667 46.2667 26.9 45.6 26.9C44.9333 26.9 44.6 26.5667 44.6 25.9C44.6 25.2333 44.9333 24.9 45.6 24.9ZM1.6 33.9C2.26667 33.9 2.6 34.2333 2.6 34.9C2.6 35.5667 2.26667 35.9 1.6 35.9C0.933334 35.9 0.6 35.5667 0.6 34.9C0.6 34.2333 0.933334 33.9 1.6 33.9ZM1.6 37.9C2.26667 37.9 2.6 38.2333 2.6 38.9C2.6 39.5667 2.26667 39.9 1.6 39.9C0.933334 39.9 0.6 39.5667 0.6 38.9C0.6 38.2333 0.933334 37.9 1.6 37.9ZM2.3 41.7C2.96667 41.7 3.3 42.0333 3.3 42.7C3.3 43.3667 2.96667 43.7 2.3 43.7C1.63333 43.7 1.3 43.3667 1.3 42.7C1.3 42.0333 1.63333 41.7 2.3 41.7ZM3.6 45.4C4.26667 45.4 4.6 45.7333 4.6 46.4C4.6 47.0667 4.26667 47.4 3.6 47.4C2.93333 47.4 2.6 47.0667 2.6 46.4C2.6 45.7333 2.93333 45.4 3.6 45.4ZM5.7 48.8C6.36667 48.8 6.7 49.1333 6.7 49.8C6.7 50.4667 6.36667 50.8 5.7 50.8C5.03333 50.8 4.7 50.4667 4.7 49.8C4.7 49.1333 5.03333 48.8 5.7 48.8ZM8.3 51.9C8.96667 51.9 9.3 52.2333 9.3 52.9C9.3 53.5667 8.96667 53.9 8.3 53.9C7.63333 53.9 7.3 53.5667 7.3 52.9C7.3 52.2333 7.63333 51.9 8.3 51.9ZM11.5 54.4C12.1667 54.4 12.5 54.7333 12.5 55.4C12.5 56.0667 12.1667 56.4 11.5 56.4C10.8333 56.4 10.5 56.0667 10.5 55.4C10.5 54.7333 10.8333 54.4 11.5 54.4ZM15 56.3C15.6667 56.3 16 56.6333 16 57.3C16 57.9667 15.6667 58.3 15 58.3C14.3333 58.3 14 57.9667 14 57.3C14 56.6333 14.3333 56.3 15 56.3ZM18.7 57.6C19.3667 57.6 19.7 57.9333 19.7 58.6C19.7 59.2667 19.3667 59.6 18.7 59.6C18.0333 59.6 17.7 59.2667 17.7 58.6C17.7 57.9333 18.0333 57.6 18.7 57.6ZM22.5 58.2C23.1667 58.2 23.5 58.5333 23.5 59.2C23.5 59.8667 23.1667 60.2 22.5 60.2C21.8333 60.2 21.5 59.8667 21.5 59.2C21.5 58.5333 21.8333 58.2 22.5 58.2ZM26.2 58.2C26.8667 58.2 27.2 58.5333 27.2 59.2C27.2 59.8667 26.8667 60.2 26.2 60.2C25.5333 60.2 25.2 59.8667 25.2 59.2C25.2 58.5333 25.5333 58.2 26.2 58.2ZM29.8 57.7C30.4667 57.7 30.8 58.0333 30.8 58.7C30.8 59.3667 30.4667 59.7 29.8 59.7C29.1333 59.7 28.8 59.3667 28.8 58.7C28.8 58.0333 29.1333 57.7 29.8 57.7ZM33.3 56.6C33.9667 56.6 34.3 56.9333 34.3 57.6C34.3 58.2667 33.9667 58.6 33.3 58.6C32.6333 58.6 32.3 58.2667 32.3 57.6C32.3 56.9333 32.6333 56.6 33.3 56.6ZM36.5 54.9C37.1667 54.9 37.5 55.2333 37.5 55.9C37.5 56.5667 37.1667 56.9 36.5 56.9C35.8333 56.9 35.5 56.5667 35.5 55.9C35.5 55.2333 35.8333 54.9 36.5 54.9ZM39.6 52.6C40.2667 52.6 40.6 52.9333 40.6 53.6C40.6 54.2667 40.2667 54.6 39.6 54.6C38.9333 54.6 38.6 54.2667 38.6 53.6C38.6 52.9333 38.9333 52.6 39.6 52.6ZM42 49.9C42.6667 49.9 43 50.2333 43 50.9C43 51.5667 42.6667 51.9 42 51.9C41.3333 51.9 41 51.5667 41 50.9C41 50.2333 41.3333 49.9 42 49.9ZM44.3 46.3C44.9667 46.3 45.3 46.6333 45.3 47.3C45.3 47.9667 44.9667 48.3 44.3 48.3C43.6333 48.3 43.3 47.9667 43.3 47.3C43.3 46.6333 43.6333 46.3 44.3 46.3ZM47 28.7C47.6667 28.7 48 29.0333 48 29.7C48 30.3667 47.6667 30.7 47 30.7C46.3333 30.7 46 30.3667 46 29.7C46 29.0333 46.3333 28.7 47 28.7ZM47.8 32.7C48.4667 32.7 48.8 33.0333 48.8 33.7C48.8 34.3667 48.4667 34.7 47.8 34.7C47.1333 34.7 46.8 34.3667 46.8 33.7C46.8 33.0333 47.1333 32.7 47.8 32.7ZM48.1 36.8C48.7667 36.8 49.1 37.1333 49.1 37.8C49.1 38.4667 48.7667 38.8 48.1 38.8C47.4333 38.8 47.1 38.4667 47.1 37.8C47.1 37.1333 47.4333 36.8 48.1 36.8ZM48.2 40.8C48.8667 40.8 49.2 41.1333 49.2 41.8C49.2 42.4667 48.8667 42.8 48.2 42.8C47.5333 42.8 47.2 42.4667 47.2 41.8C47.2 41.1333 47.5333 40.8 48.2 40.8ZM48 44.7C48.6667 44.7 49 45.0333 49 45.7C49 46.3667 48.6667 46.7 48 46.7C47.3333 46.7 47 46.3667 47 45.7C47 45.0333 47.3333 44.7 48 44.7ZM47.7 48.6C48.3667 48.6 48.7 48.9333 48.7 49.6C48.7 50.2667 48.3667 50.6 47.7 50.6C47.0333 50.6 46.7 50.2667 46.7 49.6C46.7 48.9333 47.0333 48.6 47.7 48.6ZM47.5 52.3C48.1667 52.3 48.5 52.6333 48.5 53.3C48.5 53.9667 48.1667 54.3 47.5 54.3C46.8333 54.3 46.5 53.9667 46.5 53.3C46.5 52.6333 46.8333 52.3 47.5 52.3ZM47 55.9C47.6667 55.9 48 56.2333 48 56.9C48 57.5667 47.6667 57.9 47 57.9C46.3333 57.9 46 57.5667 46 56.9C46 56.2333 46.3333 55.9 47 55.9ZM46.3 59.4C46.9667 59.4 47.3 59.7333 47.3 60.4C47.3 61.0667 46.9667 61.4 46.3 61.4C45.6333 61.4 45.3 61.0667 45.3 60.4C45.3 59.7333 45.6333 59.4 46.3 59.4ZM45.3 63C45.9667 63 46.3 63.3333 46.3 64C46.3 64.6667 45.9667 65 45.3 65C44.6333 65 44.3 64.6667 44.3 64C44.3 63.3333 44.6333 63 45.3 63ZM44.1 66.5C44.7667 66.5 45.1 66.8333 45.1 67.5C45.1 68.1667 44.7667 68.5 44.1 68.5C43.4333 68.5 43.1 68.1667 43.1 67.5C43.1 66.8333 43.4333 66.5 44.1 66.5ZM42.5 70C43.1667 70 43.5 70.3333 43.5 71C43.5 71.6667 43.1667 72 42.5 72C41.8333 72 41.5 71.6667 41.5 71C41.5 70.3333 41.8333 70 42.5 70ZM40.3 73.3C40.9667 73.3 41.3 73.6333 41.3 74.3C41.3 74.9667 40.9667 75.3 40.3 75.3C39.6333 75.3 39.3 74.9667 39.3 74.3C39.3 73.6333 39.6333 73.3 40.3 73.3ZM37.7 76.1C38.3667 76.1 38.7 76.4333 38.7 77.1C38.7 77.7667 38.3667 78.1 37.7 78.1C37.0333 78.1 36.7 77.7667 36.7 77.1C36.7 76.4333 37.0333 76.1 37.7 76.1ZM34.8 78.3C35.4667 78.3 35.8 78.6333 35.8 79.3C35.8 79.9667 35.4667 80.3 34.8 80.3C34.1333 80.3 33.8 79.9667 33.8 79.3C33.8 78.6333 34.1333 78.3 34.8 78.3ZM31.6 79.9C32.2667 79.9 32.6 80.2333 32.6 80.9C32.6 81.5667 32.2667 81.9 31.6 81.9C30.9333 81.9 30.6 81.5667 30.6 80.9C30.6 80.2333 30.9333 79.9 31.6 79.9ZM28.2 81C28.8667 81 29.2 81.3333 29.2 82C29.2 82.6667 28.8667 83 28.2 83C27.5333 83 27.2 82.6667 27.2 82C27.2 81.3333 27.5333 81 28.2 81ZM24.6 81.3C25.2667 81.3 25.6 81.6333 25.6 82.3C25.6 82.9667 25.2667 83.3 24.6 83.3C23.9333 83.3 23.6 82.9667 23.6 82.3C23.6 81.6333 23.9333 81.3 24.6 81.3ZM21 81.1C21.6667 81.1 22 81.4333 22 82.1C22 82.7667 21.6667 83.1 21 83.1C20.3333 83.1 20 82.7667 20 82.1C20 81.4333 20.3333 81.1 21 81.1ZM17.4 80.1C18.0667 80.1 18.4 80.4333 18.4 81.1C18.4 81.7667 18.0667 82.1 17.4 82.1C16.7333 82.1 16.4 81.7667 16.4 81.1C16.4 80.4333 16.7333 80.1 17.4 80.1ZM14 78.4C14.6667 78.4 15 78.7333 15 79.4C15 80.0667 14.6667 80.4 14 80.4C13.3333 80.4 13 80.0667 13 79.4C13 78.7333 13.3333 78.4 14 78.4ZM11 76.2C11.6667 76.2 12 76.5333 12 77.2C12 77.8667 11.6667 78.2 11 78.2C10.3333 78.2 10 77.8667 10 77.2C10 76.5333 10.3333 76.2 11 76.2ZM8.3 73.3C8.96667 73.3 9.3 73.6333 9.3 74.3C9.3 74.9667 8.96667 75.3 8.3 75.3C7.63333 75.3 7.3 74.9667 7.3 74.3C7.3 73.6333 7.63333 73.3 8.3 73.3ZM6.1 69.9C6.76667 69.9 7.1 70.2333 7.1 70.9C7.1 71.5667 6.76667 71.9 6.1 71.9C5.43333 71.9 5.1 71.5667 5.1 70.9C5.1 70.2333 5.43333 69.9 6.1 69.9ZM62.4467 22.32C63.2467 22.32 63.6467 22.72 63.6467 23.52C63.6467 24.32 63.2467 24.72 62.4467 24.72C61.6467 24.72 61.2467 24.32 61.2467 23.52C61.2467 22.72 61.6467 22.32 62.4467 22.32ZM63.8867 17.76C64.6867 17.76 65.0867 18.16 65.0867 18.96C65.0867 19.76 64.6867 20.16 63.8867 20.16C63.0867 20.16 62.6867 19.76 62.6867 18.96C62.6867 18.16 63.0867 17.76 63.8867 17.76ZM66.0467 13.56C66.8467 13.56 67.2467 13.96 67.2467 14.76C67.2467 15.56 66.8467 15.96 66.0467 15.96C65.2467 15.96 64.8467 15.56 64.8467 14.76C64.8467 13.96 65.2467 13.56 66.0467 13.56ZM68.5667 9.72C69.3667 9.72 69.7667 10.12 69.7667 10.92C69.7667 11.72 69.3667 12.12 68.5667 12.12C67.7667 12.12 67.3667 11.72 67.3667 10.92C67.3667 10.12 67.7667 9.72 68.5667 9.72ZM72.0467 6.71999C72.8467 6.71999 73.2467 7.12 73.2467 7.92C73.2467 8.72 72.8467 9.12 72.0467 9.12C71.2467 9.12 70.8467 8.72 70.8467 7.92C70.8467 7.12 71.2467 6.71999 72.0467 6.71999ZM76.0067 4.2C76.8067 4.2 77.2067 4.6 77.2067 5.4C77.2067 6.2 76.8067 6.6 76.0067 6.6C75.2067 6.6 74.8067 6.2 74.8067 5.4C74.8067 4.6 75.2067 4.2 76.0067 4.2ZM80.2067 2.4C81.0067 2.4 81.4067 2.8 81.4067 3.6C81.4067 4.4 81.0067 4.8 80.2067 4.8C79.4067 4.8 79.0067 4.4 79.0067 3.6C79.0067 2.8 79.4067 2.4 80.2067 2.4ZM84.5267 1.44C85.3267 1.44 85.7267 1.84 85.7267 2.64C85.7267 3.44 85.3267 3.83999 84.5267 3.83999C83.7267 3.83999 83.3267 3.44 83.3267 2.64C83.3267 1.84 83.7267 1.44 84.5267 1.44ZM88.8467 0.959996C89.6467 0.959996 90.0467 1.36 90.0467 2.16C90.0467 2.95999 89.6467 3.35999 88.8467 3.35999C88.0467 3.35999 87.6467 2.95999 87.6467 2.16C87.6467 1.36 88.0467 0.959996 88.8467 0.959996ZM93.1667 1.32C93.9667 1.32 94.3667 1.72 94.3667 2.52C94.3667 3.32 93.9667 3.72 93.1667 3.72C92.3667 3.72 91.9667 3.32 91.9667 2.52C91.9667 1.72 92.3667 1.32 93.1667 1.32ZM97.4867 2.04C98.2867 2.04 98.6867 2.44 98.6867 3.24C98.6867 4.03999 98.2867 4.43999 97.4867 4.43999C96.6867 4.43999 96.2867 4.03999 96.2867 3.24C96.2867 2.44 96.6867 2.04 97.4867 2.04ZM101.807 3.6C102.607 3.6 103.007 4 103.007 4.8C103.007 5.6 102.607 6 101.807 6C101.007 6 100.607 5.6 100.607 4.8C100.607 4 101.007 3.6 101.807 3.6ZM105.767 5.76C106.567 5.76 106.967 6.16 106.967 6.96C106.967 7.76 106.567 8.16 105.767 8.16C104.967 8.16 104.567 7.76 104.567 6.96C104.567 6.16 104.967 5.76 105.767 5.76ZM109.127 8.64C109.927 8.64 110.327 9.04 110.327 9.84C110.327 10.64 109.927 11.04 109.127 11.04C108.327 11.04 107.927 10.64 107.927 9.84C107.927 9.04 108.327 8.64 109.127 8.64ZM112.127 12C112.927 12 113.327 12.4 113.327 13.2C113.327 14 112.927 14.4 112.127 14.4C111.327 14.4 110.927 14 110.927 13.2C110.927 12.4 111.327 12 112.127 12ZM114.407 16.08C115.207 16.08 115.607 16.48 115.607 17.28C115.607 18.08 115.207 18.48 114.407 18.48C113.607 18.48 113.207 18.08 113.207 17.28C113.207 16.48 113.607 16.08 114.407 16.08ZM61.6067 26.88C62.4067 26.88 62.8067 27.28 62.8067 28.08C62.8067 28.88 62.4067 29.28 61.6067 29.28C60.8067 29.28 60.4067 28.88 60.4067 28.08C60.4067 27.28 60.8067 26.88 61.6067 26.88ZM61.6067 31.68C62.4067 31.68 62.8067 32.08 62.8067 32.88C62.8067 33.68 62.4067 34.08 61.6067 34.08C60.8067 34.08 60.4067 33.68 60.4067 32.88C60.4067 32.08 60.8067 31.68 61.6067 31.68ZM62.4467 36.24C63.2467 36.24 63.6467 36.64 63.6467 37.44C63.6467 38.24 63.2467 38.64 62.4467 38.64C61.6467 38.64 61.2467 38.24 61.2467 37.44C61.2467 36.64 61.6467 36.24 62.4467 36.24ZM64.0067 40.68C64.8067 40.68 65.2067 41.08 65.2067 41.88C65.2067 42.68 64.8067 43.08 64.0067 43.08C63.2067 43.08 62.8067 42.68 62.8067 41.88C62.8067 41.08 63.2067 40.68 64.0067 40.68ZM66.5267 44.76C67.3267 44.76 67.7267 45.16 67.7267 45.96C67.7267 46.76 67.3267 47.16 66.5267 47.16C65.7267 47.16 65.3267 46.76 65.3267 45.96C65.3267 45.16 65.7267 44.76 66.5267 44.76ZM69.6467 48.48C70.4467 48.48 70.8467 48.88 70.8467 49.68C70.8467 50.48 70.4467 50.88 69.6467 50.88C68.8467 50.88 68.4467 50.48 68.4467 49.68C68.4467 48.88 68.8467 48.48 69.6467 48.48ZM73.4867 51.48C74.2867 51.48 74.6867 51.88 74.6867 52.68C74.6867 53.48 74.2867 53.88 73.4867 53.88C72.6867 53.88 72.2867 53.48 72.2867 52.68C72.2867 51.88 72.6867 51.48 73.4867 51.48ZM77.6867 53.76C78.4867 53.76 78.8867 54.16 78.8867 54.96C78.8867 55.76 78.4867 56.16 77.6867 56.16C76.8867 56.16 76.4867 55.76 76.4867 54.96C76.4867 54.16 76.8867 53.76 77.6867 53.76ZM82.1267 55.32C82.9267 55.32 83.3267 55.72 83.3267 56.52C83.3267 57.32 82.9267 57.72 82.1267 57.72C81.3267 57.72 80.9267 57.32 80.9267 56.52C80.9267 55.72 81.3267 55.32 82.1267 55.32ZM86.6867 56.04C87.4867 56.04 87.8867 56.44 87.8867 57.24C87.8867 58.04 87.4867 58.44 86.6867 58.44C85.8867 58.44 85.4867 58.04 85.4867 57.24C85.4867 56.44 85.8867 56.04 86.6867 56.04ZM91.1267 56.04C91.9267 56.04 92.3267 56.44 92.3267 57.24C92.3267 58.04 91.9267 58.44 91.1267 58.44C90.3267 58.44 89.9267 58.04 89.9267 57.24C89.9267 56.44 90.3267 56.04 91.1267 56.04ZM95.4467 55.44C96.2467 55.44 96.6467 55.84 96.6467 56.64C96.6467 57.44 96.2467 57.84 95.4467 57.84C94.6467 57.84 94.2467 57.44 94.2467 56.64C94.2467 55.84 94.6467 55.44 95.4467 55.44ZM99.6467 54.12C100.447 54.12 100.847 54.52 100.847 55.32C100.847 56.12 100.447 56.52 99.6467 56.52C98.8467 56.52 98.4467 56.12 98.4467 55.32C98.4467 54.52 98.8467 54.12 99.6467 54.12ZM103.487 52.08C104.287 52.08 104.687 52.48 104.687 53.28C104.687 54.08 104.287 54.48 103.487 54.48C102.687 54.48 102.287 54.08 102.287 53.28C102.287 52.48 102.687 52.08 103.487 52.08ZM107.207 49.32C108.007 49.32 108.407 49.72 108.407 50.52C108.407 51.32 108.007 51.72 107.207 51.72C106.407 51.72 106.007 51.32 106.007 50.52C106.007 49.72 106.407 49.32 107.207 49.32ZM110.087 46.08C110.887 46.08 111.287 46.48 111.287 47.28C111.287 48.08 110.887 48.48 110.087 48.48C109.287 48.48 108.887 48.08 108.887 47.28C108.887 46.48 109.287 46.08 110.087 46.08ZM112.847 41.76C113.647 41.76 114.047 42.16 114.047 42.96C114.047 43.76 113.647 44.16 112.847 44.16C112.047 44.16 111.647 43.76 111.647 42.96C111.647 42.16 112.047 41.76 112.847 41.76ZM116.087 20.64C116.887 20.64 117.287 21.04 117.287 21.84C117.287 22.64 116.887 23.04 116.087 23.04C115.287 23.04 114.887 22.64 114.887 21.84C114.887 21.04 115.287 20.64 116.087 20.64ZM117.047 25.44C117.847 25.44 118.247 25.84 118.247 26.64C118.247 27.44 117.847 27.84 117.047 27.84C116.247 27.84 115.847 27.44 115.847 26.64C115.847 25.84 116.247 25.44 117.047 25.44ZM117.407 30.36C118.207 30.36 118.607 30.76 118.607 31.56C118.607 32.36 118.207 32.76 117.407 32.76C116.607 32.76 116.207 32.36 116.207 31.56C116.207 30.76 116.607 30.36 117.407 30.36ZM117.527 35.16C118.327 35.16 118.727 35.56 118.727 36.36C118.727 37.16 118.327 37.56 117.527 37.56C116.727 37.56 116.327 37.16 116.327 36.36C116.327 35.56 116.727 35.16 117.527 35.16ZM117.287 39.84C118.087 39.84 118.487 40.24 118.487 41.04C118.487 41.84 118.087 42.24 117.287 42.24C116.487 42.24 116.087 41.84 116.087 41.04C116.087 40.24 116.487 39.84 117.287 39.84ZM116.927 44.52C117.727 44.52 118.127 44.92 118.127 45.72C118.127 46.52 117.727 46.92 116.927 46.92C116.127 46.92 115.727 46.52 115.727 45.72C115.727 44.92 116.127 44.52 116.927 44.52ZM116.687 48.96C117.487 48.96 117.887 49.36 117.887 50.16C117.887 50.96 117.487 51.36 116.687 51.36C115.887 51.36 115.487 50.96 115.487 50.16C115.487 49.36 115.887 48.96 116.687 48.96ZM116.087 53.28C116.887 53.28 117.287 53.68 117.287 54.48C117.287 55.28 116.887 55.68 116.087 55.68C115.287 55.68 114.887 55.28 114.887 54.48C114.887 53.68 115.287 53.28 116.087 53.28ZM115.247 57.48C116.047 57.48 116.447 57.88 116.447 58.68C116.447 59.48 116.047 59.88 115.247 59.88C114.447 59.88 114.047 59.48 114.047 58.68C114.047 57.88 114.447 57.48 115.247 57.48ZM114.047 61.8C114.847 61.8 115.247 62.2 115.247 63C115.247 63.8 114.847 64.2 114.047 64.2C113.247 64.2 112.847 63.8 112.847 63C112.847 62.2 113.247 61.8 114.047 61.8ZM112.607 66C113.407 66 113.807 66.4 113.807 67.2C113.807 68 113.407 68.4 112.607 68.4C111.807 68.4 111.407 68 111.407 67.2C111.407 66.4 111.807 66 112.607 66ZM110.687 70.2C111.487 70.2 111.887 70.6 111.887 71.4C111.887 72.2 111.487 72.6 110.687 72.6C109.887 72.6 109.487 72.2 109.487 71.4C109.487 70.6 109.887 70.2 110.687 70.2ZM108.047 74.16C108.847 74.16 109.247 74.56 109.247 75.36C109.247 76.16 108.847 76.56 108.047 76.56C107.247 76.56 106.847 76.16 106.847 75.36C106.847 74.56 107.247 74.16 108.047 74.16ZM104.927 77.52C105.727 77.52 106.127 77.92 106.127 78.72C106.127 79.52 105.727 79.92 104.927 79.92C104.127 79.92 103.727 79.52 103.727 78.72C103.727 77.92 104.127 77.52 104.927 77.52ZM101.447 80.16C102.247 80.16 102.647 80.56 102.647 81.36C102.647 82.16 102.247 82.56 101.447 82.56C100.647 82.56 100.247 82.16 100.247 81.36C100.247 80.56 100.647 80.16 101.447 80.16ZM97.6067 82.08C98.4067 82.08 98.8067 82.48 98.8067 83.28C98.8067 84.08 98.4067 84.48 97.6067 84.48C96.8067 84.48 96.4067 84.08 96.4067 83.28C96.4067 82.48 96.8067 82.08 97.6067 82.08ZM93.5267 83.4C94.3267 83.4 94.7267 83.8 94.7267 84.6C94.7267 85.4 94.3267 85.8 93.5267 85.8C92.7267 85.8 92.3267 85.4 92.3267 84.6C92.3267 83.8 92.7267 83.4 93.5267 83.4ZM89.2067 83.76C90.0067 83.76 90.4067 84.16 90.4067 84.96C90.4067 85.76 90.0067 86.16 89.2067 86.16C88.4067 86.16 88.0067 85.76 88.0067 84.96C88.0067 84.16 88.4067 83.76 89.2067 83.76ZM84.8867 83.52C85.6867 83.52 86.0867 83.92 86.0867 84.72C86.0867 85.52 85.6867 85.92 84.8867 85.92C84.0867 85.92 83.6867 85.52 83.6867 84.72C83.6867 83.92 84.0867 83.52 84.8867 83.52ZM80.5667 82.32C81.3667 82.32 81.7667 82.72 81.7667 83.52C81.7667 84.32 81.3667 84.72 80.5667 84.72C79.7667 84.72 79.3667 84.32 79.3667 83.52C79.3667 82.72 79.7667 82.32 80.5667 82.32ZM76.4867 80.28C77.2867 80.28 77.6867 80.68 77.6867 81.48C77.6867 82.28 77.2867 82.68 76.4867 82.68C75.6867 82.68 75.2867 82.28 75.2867 81.48C75.2867 80.68 75.6867 80.28 76.4867 80.28ZM72.8867 77.64C73.6867 77.64 74.0867 78.04 74.0867 78.84C74.0867 79.64 73.6867 80.04 72.8867 80.04C72.0867 80.04 71.6867 79.64 71.6867 78.84C71.6867 78.04 72.0867 77.64 72.8867 77.64ZM69.6467 74.16C70.4467 74.16 70.8467 74.56 70.8467 75.36C70.8467 76.16 70.4467 76.56 69.6467 76.56C68.8467 76.56 68.4467 76.16 68.4467 75.36C68.4467 74.56 68.8467 74.16 69.6467 74.16ZM67.0067 70.08C67.8067 70.08 68.2067 70.48 68.2067 71.28C68.2067 72.08 67.8067 72.48 67.0067 72.48C66.2067 72.48 65.8067 72.08 65.8067 71.28C65.8067 70.48 66.2067 70.08 67.0067 70.08Z" fill="#C1C51F"/>
</svg>
